<?xml version="1.0" standalone="no"?><!DOCTYPE svg PUBLIC "-//W3C//DTD SVG 1.1//EN" "http://www.w3.org/Graphics/SVG/1.1/DTD/svg11.dtd"><svg class="icon" width="200px" height="200.00px" viewBox="0 0 1024 1024" version="1.1" xmlns="http://www.w3.org/2000/svg"><path d="M736 480h-448c-17.066667 0-32 14.933333-32 32s14.933333 32 32 32h448c17.066667 0 32-14.933333 32-32s-14.933333-32-32-32z" fill="#212121" /><path d="M512 32C247.466667 32 32 247.466667 32 512S247.466667 992 512 992 992 776.533333 992 512 776.533333 32 512 32z m0 896C281.6 928 96 742.4 96 512S281.6 96 512 96 928 281.6 928 512 742.4 928 512 928z" fill="#212121" /></svg>