<?xml version="1.0" standalone="no"?><!DOCTYPE svg PUBLIC "-//W3C//DTD SVG 1.1//EN" "http://www.w3.org/Graphics/SVG/1.1/DTD/svg11.dtd"><svg class="icon" width="200px" height="200.00px" viewBox="0 0 1024 1024" version="1.1" xmlns="http://www.w3.org/2000/svg"><path d="M510.827291 64.041572c247.095701 0.027629 448.76684 201.816448 448.279746 448.541713-0.490164 247.641123-201.838961 448.843588-448.570365 448.240861-247.462045-0.603751-447.696462-200.955848-448.02392-448.288956C62.184271 265.653359 263.742846 64.013943 510.827291 64.041572zM916.774907 512.36532C916.739091 288.773939 735.657896 107.047038 511.049349 106.58655c-223.89121-0.458441-405.925103 181.25311-406.15944 405.79105-0.233314 223.61287 181.448562 405.16581 405.673369 405.804353C733.898833 918.818449 916.810722 736.084615 916.774907 512.36532zM535.794939 657.30027c-19.142989 0-37.775348 0-56.938803 0 0-11.373025-0.607844-22.537296 0.127913-33.612539 1.484817-22.364357 6.65763-43.814901 18.343787-63.300698 9.094122-15.164375 20.674878-28.250414 33.540907-40.276309 15.978926-14.935154 32.148188-29.677926 47.809889-44.939515 9.222035-8.985652 17.418718-19.008936 21.679765-31.483038 10.207479-29.883611 3.681856-56.56939-16.198937-80.3367-33.015951-39.469943-88.2356-40.821731-122.050754-21.066805-21.313422 12.450567-34.092469 31.502481-41.552371 54.414307-3.344165 10.271948-5.653767 20.880563-8.651031 32.155351-19.651572-2.333138-39.766702-4.721535-60.636009-7.198959 0.778736-5.205559 1.336438-10.100032 2.26253-14.923898 5.196349-27.060309 14.589276-52.297087 32.253588-73.943083 21.519106-26.369577 49.554626-41.723264 82.579787-48.061622 34.471093-6.615675 68.919672-5.901407 102.44216 4.986571 42.920532 13.939477 74.679863 41.176818 89.112574 84.563978 13.856589 41.654702 7.048533 81.003895-20.22667 116.155487-17.302061 22.298865-38.820144 40.415478-59.041698 59.83169-8.895601 8.541537-17.895579 17.136286-25.622564 26.696012-11.477402 14.198374-15.858176 31.370475-17.241686 49.325405C537.00551 636.422777 536.474414 646.580115 535.794939 657.30027zM475.157907 777.74034c0-22.494317 0-44.771693 0-67.411319 22.538319 0 44.810578 0 67.458391 0 0 22.425755 0 44.709271 0 67.411319C520.208962 777.74034 497.807766 777.74034 475.157907 777.74034z" fill="#272636" /></svg>